PathFileType	4	(X/Y/Z)	D:\TRACE\spotREDO_2-26-24\spot_justBody_Motion_3_3-platform.trc
DataRate	CameraRate	NumFrames	NumMarkers	Units	OrigDataRate	OrigDataStartFrame	OrigNumFrames
100.00	100.00	      36	5	mm	100.00	1751	      7000
Frame#	Time	Left_Front			Right_Front			Left_Aft			Right_Aft			Post			
		X1	Y1	Z1	X2	Y2	Z2	X3	Y3	Z3	X4	Y4	Z4	X5	Y5	Z5	

1751	17.500	-730.98059	-8.53924	-576.79382	683.86310	0.49460	-492.23550	-802.30994	9.19381	641.69214	768.11304	16.08517	645.50793	-21.36046	615.18555	-988.15918	
1752	17.510	-731.18756	-8.91710	-576.87726	683.59186	0.40029	-492.46729	-802.43732	9.34553	641.58313	767.88196	16.46838	645.56152	-21.72405	614.66107	-988.58386	
1753	17.520	-731.29407	-9.32042	-576.90289	683.48987	0.08844	-492.53421	-802.51392	9.70219	641.48572	767.69415	16.72053	645.43835	-21.99422	613.82831	-989.32751	
1754	17.530	-731.36139	-9.89449	-577.00787	683.46179	-0.32678	-492.57718	-802.66248	10.04459	641.39496	767.54895	17.20835	645.28101	-21.89637	613.25702	-989.85596	
1755	17.540	-731.36877	-10.42500	-577.14374	683.55225	-0.93947	-492.51178	-802.54474	10.65049	641.35114	767.42810	17.86539	645.02301	-21.51299	612.59113	-990.19171	
1756	17.550	-731.37256	-10.59524	-577.25159	683.47089	-1.25593	-492.65674	-803.10394	11.69200	641.13489	767.35706	18.02084	644.94037	-21.95544	612.01355	-990.97296	
1757	17.560	-731.47772	-10.85852	-577.46216	683.36823	-1.59867	-492.72754	-803.12671	11.40067	641.07928	767.53510	18.18098	644.61981	-22.10166	611.33527	-991.54199	
1758	17.570	-731.74878	-11.26637	-577.61877	683.14227	-1.92637	-492.98346	-803.24060	11.80866	641.05670	767.49048	18.61992	644.57806	-22.09359	610.60468	-992.00183	
1759	17.580	-732.04736	-11.72545	-577.70569	683.06036	-2.29370	-493.06619	-803.35162	12.33063	640.96124	767.17200	19.28061	644.53259	-22.49576	609.93488	-992.31024	
1760	17.590	-732.08917	-12.26029	-577.73401	683.11237	-2.55105	-493.18130	-803.31976	12.63348	640.88092	766.97528	19.85593	644.27631	-22.39705	609.06500	-992.81714	
1761	17.600	-731.91565	-12.83970	-577.82758	683.10718	-3.04031	-493.16135	-803.54932	13.50350	640.53845	767.07196	20.42439	644.39349	-22.46269	608.38037	-993.31018	
1762	17.610	-732.09900	-13.29941	-578.00812	682.93256	-3.37966	-493.36240	-803.56396	13.90035	640.48230	766.91412	20.83196	644.25226	-21.61952	607.27417	-994.06226	
1763	17.620	-732.29932	-13.78965	-578.18530	682.78473	-3.74131	-493.64743	-803.58685	14.39546	640.32977	766.71350	21.35136	644.17316	-21.75310	606.44135	-994.47754	
1764	17.630	-732.33533	-14.30915	-578.25574	682.70313	-4.40142	-493.86334	-803.52502	14.94913	640.34210	766.66541	22.08761	643.92224	-21.70945	605.61139	-994.98773	
1765	17.640	-732.24994	-14.80539	-578.29810	682.90582	-5.05608	-493.73224	-803.48792	15.34579	640.26056	766.67920	22.60158	643.71509	-21.73717	604.43433	-996.12793	
1766	17.650	-732.15869	-15.52889	-578.52173	682.78406	-5.44029	-493.85370	-803.59515	16.03463	639.89886	766.79968	22.78005	643.24896	-22.07686	603.65808	-996.86157	
1767	17.660	-732.11847	-16.19319	-578.47595	682.81702	-5.72720	-494.04767	-803.77649	16.71755	639.76599	766.40509	23.56631	643.41022	-22.16656	602.61780	-997.73169	
1768	17.670	-732.44440	-16.66256	-578.60797	682.84662	-6.41855	-494.20358	-803.76099	17.22454	639.69165	766.56158	24.25038	643.29602	-21.68680	601.53259	-998.62134	
1769	17.680	-732.42706	-17.17105	-578.93103	682.80261	-6.86484	-494.40524	-803.68457	17.81507	639.34979	766.84412	25.05195	642.89777	-21.79597	600.49390	-999.15771	
1770	17.690	-732.09918	-18.04029	-579.07666	682.64575	-7.41222	-494.72766	-803.65466	18.51677	639.16895	766.82251	25.54976	642.99237	-22.26470	599.58093	-1000.25122	
1771	17.700	-732.01318	-18.63433	-579.11456	682.75031	-7.79187	-494.76077	-803.73608	19.08954	638.88495	766.49701	26.11150	642.62091	-22.15779	598.26898	-1001.26868	
1772	17.710	-732.29535	-19.24189	-579.30994	682.75336	-8.63843	-494.76474	-803.78320	19.81057	638.69330	766.40814	26.95221	642.57623	-22.24376	597.30493	-1001.79852	
1773	17.720	-732.08875	-20.06895	-579.71216	682.90289	-9.29395	-494.99420	-803.66663	20.60425	638.49756	766.79071	27.60698	642.36731	-22.38649	595.94727	-1002.48401	
1774	17.730	-732.12457	-20.69082	-579.63141	682.75354	-9.76985	-495.32953	-803.60638	21.09079	638.38599	766.67340	28.44481	642.11395	-21.96378	594.85046	-1002.98785	
1775	17.740	-732.04773	-21.39427	-579.69055	682.87573	-10.40477	-495.17841	-803.60602	21.93222	638.00671	766.62897	28.98038	641.96173	-22.10681	593.66077	-1003.66077	
1776	17.750	-732.08881	-21.97249	-580.04047	682.74030	-10.87142	-495.64236	-803.79010	22.82928	637.68823	766.65179	29.81576	641.72351	-22.27858	592.66101	-1004.60870	
1777	17.760	-731.94556	-22.58169	-580.13074	683.18524	-11.64557	-495.65796	-803.32336	23.56268	637.86346	766.91083	30.65296	641.55640	-21.96184	591.36224	-1005.84467	
1778	17.770	-731.58496	-23.57147	-580.33026	683.34033	-12.16727	-495.74814	-803.30927	24.17912	637.47339	766.92474	31.40186	641.13330	-21.67300	590.01147	-1006.68750	
1779	17.780	-731.57147	-24.21553	-580.54529	683.45569	-12.94663	-495.92123	-802.87463	24.86725	637.38147	767.24445	31.75372	640.82739	-21.41411	588.89648	-1007.76404	
1780	17.790	-731.44427	-24.86213	-580.70056	683.69037	-13.59483	-496.07153	-802.75269	25.65832	637.13892	767.79266	32.81573	640.70044	-21.48676	587.41644	-1008.92877	
1781	17.800	-731.02789	-25.88195	-580.81256	683.74927	-14.19400	-496.47638	-802.49084	26.59498	636.83704	767.75635	33.78097	640.66644	-20.70801	585.96393	-1009.73145	
1782	17.810	-730.86725	-26.68364	-580.92316	684.02014	-14.92422	-496.54089	-802.29675	27.35981	636.60022	767.75378	34.71951	640.20282	-20.84380	584.63464	-1010.89166	
1783	17.820	-730.52252	-27.24469	-581.16663	684.09332	-15.42108	-496.95206	-802.08124	28.37356	636.34509	768.50024	35.51215	640.15265	-20.57617	583.26941	-1012.03796	
1784	17.830	-730.11383	-28.24561	-581.44843	684.66589	-16.37362	-496.88586	-801.89624	28.98315	635.93933	768.47681	35.99552	639.97070	-20.29675	581.79620	-1012.96112	
1785	17.840	-729.85992	-29.06906	-581.55682	684.90552	-17.14462	-497.17792	-801.73273	29.64124	635.66418	768.74713	36.93944	639.52277	-19.96203	580.31854	-1014.09918	
1786	17.850	-729.70673	-29.95063	-581.71021	685.41522	-17.98372	-497.25888	-801.44775	30.92167	635.46832	769.28705	37.66122	639.06964	-19.81766	578.91455	-1015.03546	
